<svg width="23" height="23" viewBox="0 0 23 23" fill="none" xmlns="http://www.w3.org/2000/svg">
<g clip-path="url(#clip0_40_33)">
<path d="M5.61141 10.9412C5.28354 10.7948 5.08832 10.7147 4.89935 10.6234C4.05639 10.22 3.33403 9.60252 2.80446 8.83256C2.12368 7.84644 1.99478 6.78022 2.34518 5.65894C2.67932 4.57645 3.51902 3.85438 4.93189 4.18225C5.82541 4.38874 6.66011 4.84551 7.51984 5.19466C7.67752 5.25973 7.82644 5.34608 7.94783 5.40615C8.20813 5.25598 8.16558 5.06326 8.12803 4.90558C7.82769 3.57906 8.317 2.43776 8.98276 1.35152C9.17579 1.05025 9.42676 0.790345 9.7211 0.5869C11.1753 -0.434266 13.7031 -0.0625915 14.8032 1.31899C15.1786 1.77951 15.3851 2.29885 15.33 2.9083C15.2887 3.36257 15.2674 3.81809 15.2311 4.36371C15.5665 4.18976 15.8206 4.06837 16.0646 3.93072C17.4286 3.15733 18.8453 3.09476 20.3069 3.60785C20.5127 3.67063 20.7149 3.74457 20.9126 3.82935C21.2696 3.98954 21.5879 4.22467 21.8459 4.51876C22.104 4.81286 22.2957 5.15904 22.4081 5.5338C22.7022 6.42481 22.577 7.17817 22.2291 8.00912C21.5396 9.67477 20.3245 10.7297 18.6576 11.3304C18.5003 11.3994 18.3466 11.4763 18.197 11.5607C18.4861 11.7427 18.7857 11.9073 19.0943 12.0537C19.9933 12.4175 20.8125 12.9536 21.5058 13.6318C22.0895 14.1735 22.4407 14.9203 22.4857 15.7154C22.5457 16.8855 21.6284 18.1119 20.4358 18.416C19.7586 18.5975 19.0506 18.6338 18.3583 18.5225C17.666 18.4112 17.005 18.1549 16.4187 17.7703C16.0946 17.5663 15.7755 17.356 15.3563 17.0845C15.32 17.3585 15.2624 17.5237 15.2837 17.6789C15.4752 19.103 15.1748 20.4608 14.658 21.7686C14.419 22.3793 13.971 22.811 13.2301 22.9136C12.692 22.99 12.1764 23.0513 11.6408 22.9349C10.9656 22.7974 10.3724 22.3978 9.99141 21.8236C9.35318 20.8876 8.93896 19.8702 8.92269 18.7188C8.92269 18.2183 8.92269 17.7177 8.92269 17.117C8.77691 17.1753 8.63766 17.2487 8.50722 17.336C7.41097 18.3034 6.1708 18.9967 4.72415 19.2632C3.15861 19.5523 1.82459 19.1381 0.797168 17.8741C0.519351 17.5287 0.325379 16.4813 0.483059 15.9181C0.685791 15.1948 0.949842 14.4965 1.42789 13.8908C2.42903 12.6394 3.61163 11.652 5.1584 11.1515C5.26101 11.1202 5.35237 11.0639 5.61141 10.9412ZM15.091 10.9012C15.8681 10.7573 16.5314 10.6509 17.1884 10.5095C17.5025 10.4444 17.8041 10.3255 18.1169 10.2517C19.4772 9.93006 20.3245 9.01652 20.9502 7.83017C21.4144 6.9429 21.2105 6.09068 20.8025 5.271C20.6618 5.02111 20.4416 4.8255 20.1768 4.71536C19.4472 4.41502 18.7139 4.26109 17.8904 4.46508C16.4826 4.82048 15.733 5.90297 14.907 6.92538C14.8082 7.51606 14.3727 7.91652 14.0736 8.39331C13.7545 8.90514 13.7319 9.01902 14.1324 9.39445C14.5491 9.79491 14.9308 10.2054 15.091 10.9012ZM8.25943 12.0275C8.15287 11.9941 8.0447 11.9661 7.93531 11.9436C6.85784 11.7859 5.88673 12.1939 4.9444 12.5944C3.69297 13.1212 2.7544 14.046 2.13369 15.2712C1.86288 15.8172 1.73991 16.4248 1.77704 17.0332C1.79706 17.5125 1.99478 17.8591 2.48785 17.973C2.79782 18.0495 3.11151 18.11 3.42767 18.1544C4.51141 18.2871 5.44122 17.7903 6.38605 17.3861C6.70977 17.2407 7.00774 17.0438 7.2683 16.8029C7.95692 16.1801 8.55506 15.464 9.04533 14.6755C9.15507 14.4717 9.2496 14.26 9.32815 14.0423C9.08913 13.6944 8.85511 13.4165 8.69243 13.1037C8.52884 12.7526 8.3843 12.3929 8.25943 12.0262V12.0275ZM12.2828 8.38455C12.409 8.18469 12.5199 7.97551 12.6144 7.75884C12.9385 6.88284 13.2176 5.99682 13.5642 5.13084C13.8821 4.33868 13.8333 3.51399 13.8683 2.69681C13.8624 2.48588 13.8016 2.28013 13.6919 2.09988C13.2601 1.32649 11.7059 0.848448 10.915 1.22388C10.8491 1.25523 10.789 1.29755 10.7373 1.34902C9.88754 2.17621 9.30187 3.12855 9.48333 4.37998C9.64351 5.48874 10.0327 6.53118 10.5108 7.53608C10.8987 8.35577 11.2341 8.50218 12.2828 8.38455ZM14.3289 13.4391C14.5791 14.1236 15.0334 14.5804 15.4551 15.0659C16.4003 16.1954 17.6843 16.9902 19.1168 17.3323C19.4453 17.4213 19.7914 17.4229 20.1207 17.3369C20.45 17.2508 20.7511 17.0801 20.994 16.8417C21.1472 16.7157 21.2569 16.5446 21.3072 16.3527C21.3575 16.1608 21.346 15.958 21.2743 15.773C21.0102 15.0221 20.6298 14.3614 19.9478 13.8808C18.6963 13.0048 17.2947 12.5043 15.8306 12.1526C15.5628 12.0888 15.2674 12.1438 14.9683 12.1438L14.3289 13.4391ZM12.8885 14.5979L10.9525 14.7668C10.1303 16.8067 9.81871 18.7927 10.8662 20.8025C10.9564 20.9965 11.0671 21.1802 11.1965 21.3506C11.5319 21.7511 11.9924 22.0314 12.4943 21.9888C13.0449 21.9413 13.2651 21.4445 13.4641 20.9627C13.7983 20.1517 13.8683 19.307 13.9334 18.4498C14.041 17.0482 13.6619 15.7918 12.8885 14.5979ZM9.73111 8.79877C9.31814 8.2982 8.94897 7.82141 8.53725 7.37965C8.24817 7.07055 7.93532 6.73642 7.5699 6.54996C6.74646 6.13448 5.87922 5.7991 5.02825 5.44244C4.92918 5.40168 4.82595 5.37189 4.7204 5.35359C3.85441 5.19841 3.25873 5.69022 3.21868 6.56247C3.1949 7.16065 3.34382 7.68876 3.76305 8.13051C4.24861 8.64735 4.64781 9.27932 5.34986 9.5271C6.15578 9.81118 6.98423 10.0352 7.80517 10.278C8.11552 10.3668 8.43088 10.4119 8.755 10.2179L9.73111 8.79877ZM13.6568 11.2816C13.6708 11.0335 13.6299 10.7854 13.5368 10.555C13.4438 10.3246 13.301 10.1176 13.1187 9.94883C12.7808 9.61846 12.3679 9.6147 11.9411 9.55589C11.0827 9.43825 10.3881 9.95759 10.1278 10.7222C9.96687 11.1543 9.8548 11.603 9.79369 12.06C9.73737 12.5969 9.99642 13.0186 10.4932 13.2701C11.3204 13.6894 12.1902 13.5417 12.8159 12.8521C13.2451 12.3741 13.6218 11.8573 13.6568 11.2816Z" fill="#6C7B8C"/>
<path d="M15.091 10.9012C14.9308 10.2054 14.5491 9.79489 14.1274 9.39944C13.7269 9.02401 13.7519 8.90638 14.0686 8.3983C14.3677 7.9215 14.8031 7.5223 14.902 6.93037C15.728 5.90796 16.4776 4.82547 17.8854 4.47006C18.7089 4.26358 19.4422 4.4175 20.1718 4.72035C20.4365 4.83049 20.6568 5.0261 20.7975 5.27598C21.2055 6.09567 21.4094 6.94789 20.9452 7.83516C20.3194 9.02151 19.4785 9.93505 18.1182 10.2567C17.8053 10.3305 17.5037 10.4494 17.1896 10.5145C16.5314 10.6446 15.8681 10.7622 15.091 10.9012Z" fill="#F5EFE7"/>
<path d="M8.25942 12.0262C8.38224 12.3927 8.52469 12.7524 8.68616 13.1037C8.84884 13.4178 9.08286 13.6943 9.32188 14.0422C9.24334 14.26 9.1488 14.4716 9.03906 14.6755C8.54879 15.464 7.95065 16.18 7.26203 16.8029C7.00147 17.0438 6.7035 17.2407 6.37978 17.386C5.43495 17.7903 4.50263 18.2871 3.4214 18.1544C3.10523 18.11 2.79155 18.0494 2.48158 17.973C1.98851 17.8591 1.79079 17.5124 1.77077 17.0331C1.73336 16.4234 1.85678 15.8145 2.12867 15.2674C2.75439 14.0422 3.68545 13.1174 4.93938 12.5906C5.88171 12.1939 6.85282 11.7821 7.9303 11.9398C8.04141 11.963 8.15126 11.9918 8.25942 12.0262Z" fill="#F5EFE7"/>
<path d="M12.2828 8.38454C11.2341 8.50217 10.8987 8.35576 10.5108 7.53857C10.0327 6.53743 9.64352 5.49124 9.48334 4.38247C9.30188 3.13104 9.88755 2.1762 10.7348 1.33775C10.7865 1.28627 10.8466 1.24396 10.9125 1.2126C11.7034 0.837174 13.2576 1.32148 13.6894 2.09486C13.8021 2.27682 13.8647 2.48534 13.8708 2.6993C13.8358 3.51648 13.8846 4.34117 13.5667 5.13333C13.2201 5.99681 12.941 6.88533 12.6169 7.76133C12.5215 7.97722 12.4098 8.18556 12.2828 8.38454Z" fill="#F5EFE7"/>
<path d="M14.3289 13.4391L14.9658 12.1488C15.2649 12.1488 15.5603 12.0938 15.8281 12.1576C17.2922 12.5067 18.6976 13.0036 19.949 13.8908C20.6311 14.3714 21.0115 15.0296 21.2755 15.783C21.3473 15.968 21.3588 16.1708 21.3084 16.3627C21.2581 16.5546 21.1485 16.7258 20.9952 16.8517C20.7523 17.0901 20.4512 17.2608 20.1219 17.3469C19.7927 17.4329 19.4466 17.4313 19.1181 17.3423C17.6856 17.0002 16.4015 16.2054 15.4564 15.0759C15.0334 14.5804 14.5854 14.1236 14.3289 13.4391Z" fill="#F5EFE7"/>
<path d="M12.8885 14.5979C13.6619 15.7918 14.041 17.0482 13.9334 18.4548C13.8683 19.312 13.7983 20.1567 13.4641 20.9677C13.2652 21.4495 13.0449 21.9463 12.4943 21.9938C11.9937 22.0364 11.5319 21.7561 11.1965 21.3556C11.0672 21.1852 10.9564 21.0015 10.8662 20.8075C9.81872 18.7977 10.1303 16.8117 10.9525 14.7718L12.8885 14.5979Z" fill="#F5EFE7"/>
<path d="M9.7311 8.7988L8.76125 10.2129C8.43588 10.4069 8.12177 10.3618 7.81016 10.273C6.98922 10.0352 6.16078 9.8112 5.35486 9.52212C4.65281 9.27184 4.2536 8.64612 3.76805 8.12553C3.34882 7.68127 3.1999 7.15567 3.22368 6.55749C3.25747 5.68149 3.84939 5.19343 4.72539 5.34861C4.83094 5.36691 4.93417 5.3967 5.03324 5.43746C5.88421 5.79912 6.75145 6.1295 7.57489 6.54498C7.95032 6.73144 8.25317 7.06557 8.54225 7.37467C8.94896 7.82143 9.31813 8.30323 9.7311 8.7988Z" fill="#F5EFE7"/>
<path d="M13.6568 11.2816C13.6218 11.8572 13.2451 12.3741 12.8109 12.8521C12.1852 13.5417 11.3204 13.6893 10.4932 13.2701C9.99267 13.0198 9.74238 12.5968 9.79369 12.06C9.8548 11.603 9.96687 11.1543 10.1278 10.7222C10.3881 9.95757 11.0827 9.43823 11.9399 9.55586C12.3666 9.61468 12.7796 9.61843 13.1175 9.94881C13.3 10.1175 13.443 10.3245 13.5363 10.5549C13.6295 10.7853 13.6707 11.0334 13.6568 11.2816Z" fill="#F5EFE7"/>
</g>
<defs>
<clipPath id="clip0_40_33">
<rect width="23" height="23" fill="white"/>
</clipPath>
</defs>
</svg>
