<svg preserveAspectRatio="none" width="100%" height="100%" overflow="visible" style="display: block;" viewBox="0 0 16 16" fill="none" xmlns="http://www.w3.org/2000/svg">
<g id="plus-solid-full 1">
<path id="Vector" d="M8.8 3.2C8.8 2.7575 8.4425 2.4 8 2.4C7.5575 2.4 7.2 2.7575 7.2 3.2V7.2H3.2C2.7575 7.2 2.4 7.5575 2.4 8C2.4 8.4425 2.7575 8.8 3.2 8.8H7.2V12.8C7.2 13.2425 7.5575 13.6 8 13.6C8.4425 13.6 8.8 13.2425 8.8 12.8V8.8H12.8C13.2425 8.8 13.6 8.4425 13.6 8C13.6 7.5575 13.2425 7.2 12.8 7.2H8.8V3.2Z" fill="var(--fill-0, #111111)"/>
</g>
</svg>
