<svg width="131" height="40" viewBox="0 0 131 40" fill="none" xmlns="http://www.w3.org/2000/svg">
<path d="M74.8061 26.8552V19.1632H73.1942V16.6536H74.8061V15.7151C74.8061 14.5997 75.0985 13.7224 75.6834 13.0831C76.2683 12.4438 77.1661 12.1241 78.3766 12.1241C78.8255 12.1241 79.2948 12.2057 79.7845 12.3689C80.2741 12.5186 80.6958 12.6954 81.0495 12.8994L79.8661 15.1438C79.7029 15.035 79.5396 14.9602 79.3764 14.9193C79.2132 14.8649 79.0636 14.8377 78.9275 14.8377C78.6011 14.8377 78.363 14.9534 78.2134 15.1846C78.0638 15.4022 77.989 15.7695 77.989 16.2864V16.6536H80.2945V19.1632H77.989V26.8552H74.8061ZM82.0349 26.8552V16.6536H85.2178V18.5511C85.6394 17.9118 86.1767 17.4289 86.8296 17.1025C87.4825 16.776 88.149 16.6128 88.8291 16.6128V19.7141C88.2034 19.7141 87.6118 19.7821 87.0541 19.9181C86.51 20.0542 86.0679 20.265 85.7279 20.5506C85.3878 20.8227 85.2178 21.1763 85.2178 21.6116V26.8552H82.0349ZM93.7552 27.1001C92.9391 27.1001 92.2522 26.9368 91.6945 26.6104C91.1368 26.2703 90.7152 25.7603 90.4295 25.0801C90.1575 24.4 90.0215 23.5295 90.0215 22.4685V16.6536H93.2044V21.8768C93.2044 22.4073 93.2656 22.8358 93.388 23.1622C93.5104 23.4887 93.6872 23.7267 93.9185 23.8764C94.1497 24.026 94.4217 24.1076 94.7346 24.1212C95.3467 24.1212 95.8092 23.9512 96.122 23.6111C96.4349 23.2575 96.5913 22.7338 96.5913 22.0401V16.6536H99.7742V26.8552H96.7749L96.6525 25.5494C96.326 26.0391 95.9112 26.42 95.4079 26.692C94.9182 26.964 94.3673 27.1001 93.7552 27.1001ZM106.675 31.2215C105.846 31.2215 105.118 31.1671 104.492 31.0583C103.88 30.9495 103.356 30.8066 102.921 30.6298C102.486 30.453 102.125 30.2558 101.84 30.0381L103.084 27.5081C103.302 27.6033 103.561 27.719 103.86 27.855C104.159 28.0046 104.526 28.1338 104.962 28.2426C105.397 28.3515 105.92 28.4059 106.533 28.4059C107.009 28.4059 107.43 28.3107 107.798 28.1202C108.178 27.9434 108.471 27.6578 108.675 27.2633C108.893 26.8824 109.001 26.3996 109.001 25.8147V24.8761C108.675 25.3794 108.246 25.7739 107.716 26.0595C107.199 26.3315 106.607 26.4676 105.941 26.4676C104.989 26.4676 104.166 26.2771 103.472 25.8963C102.792 25.5018 102.262 24.9441 101.881 24.2232C101.513 23.5023 101.33 22.6454 101.33 21.6524C101.33 20.5642 101.513 19.6325 101.881 18.8572C102.262 18.0818 102.792 17.4834 103.472 17.0617C104.166 16.6264 104.989 16.4088 105.941 16.4088C106.607 16.4088 107.199 16.5652 107.716 16.8781C108.246 17.1773 108.675 17.6126 109.001 18.1839V16.6536H112.184V25.6922C112.184 26.8348 111.967 27.821 111.531 28.6507C111.096 29.4804 110.47 30.1129 109.654 30.5482C108.838 30.9971 107.845 31.2215 106.675 31.2215ZM106.879 23.8151C107.288 23.8151 107.634 23.7199 107.92 23.5295C108.219 23.3255 108.444 23.0534 108.593 22.7134C108.757 22.3733 108.838 21.9857 108.838 21.5504C108.838 21.0879 108.757 20.6867 108.593 20.3466C108.43 20.0065 108.199 19.7413 107.9 19.5509C107.614 19.3604 107.267 19.2652 106.859 19.2652C106.465 19.2652 106.111 19.3604 105.798 19.5509C105.499 19.7413 105.261 20.0065 105.084 20.3466C104.921 20.6867 104.832 21.0879 104.819 21.5504C104.832 21.9857 104.921 22.3733 105.084 22.7134C105.261 23.0534 105.506 23.3255 105.818 23.5295C106.131 23.7199 106.485 23.8151 106.879 23.8151ZM117.538 27.1001C116.341 27.1001 115.409 26.8348 114.743 26.3043C114.076 25.7603 113.743 24.9849 113.743 23.9784C113.743 22.9038 114.09 22.1013 114.784 21.5708C115.477 21.0403 116.45 20.7751 117.701 20.7751H120.19C120.122 20.2446 119.959 19.8297 119.701 19.5305C119.456 19.2176 119.055 19.0612 118.497 19.0612C118.116 19.0612 117.783 19.1496 117.497 19.3264C117.212 19.5033 116.967 19.7413 116.763 20.0406L113.967 19.1224C114.212 18.6191 114.532 18.1635 114.926 17.7554C115.335 17.3473 115.831 17.0209 116.416 16.776C117.001 16.5312 117.681 16.4088 118.456 16.4088C119.517 16.4088 120.415 16.606 121.149 17.0005C121.884 17.3949 122.435 17.9458 122.802 18.6531C123.169 19.3604 123.353 20.197 123.353 21.1627L123.312 26.8552H120.333L120.292 25.8147C120.007 26.2363 119.633 26.556 119.17 26.7736C118.708 26.9912 118.164 27.1001 117.538 27.1001ZM118.252 24.6925C118.647 24.6925 118.987 24.6109 119.272 24.4476C119.572 24.2844 119.803 24.0668 119.966 23.7947C120.143 23.5091 120.231 23.2031 120.231 22.8766V22.8358H118.885C118.218 22.8358 117.735 22.931 117.436 23.1214C117.137 23.2983 116.987 23.5567 116.987 23.8968C116.987 24.1416 117.096 24.3388 117.314 24.4885C117.545 24.6245 117.858 24.6925 118.252 24.6925ZM125.292 26.8552V12.573H128.475V26.8552H125.292Z" fill="#1A1925"/>
<rect x="37" y="6" width="28.5645" height="28.5645" rx="2.28516" fill="#1A1925"/>
<path d="M51.2822 22.1865C53.3312 22.1865 55.0835 20.9314 55.7866 19.157H55.8965C56.2618 19.157 56.5557 18.8675 56.5557 18.5078V16.3438C56.5557 15.984 56.2618 15.6946 55.8965 15.6946H55.7866C55.0835 13.9201 53.3312 12.665 51.2822 12.665C49.2333 12.665 47.481 13.9201 46.7778 15.6946H46.668C46.3027 15.6946 46.0088 15.984 46.0088 16.3438V18.5078C46.0088 18.8675 46.3027 19.157 46.668 19.157H46.7778C47.481 20.9314 49.2333 22.1865 51.2822 22.1865ZM50.8428 15.2618H51.7217C53.1774 15.2618 54.3584 16.4249 54.3584 17.8586C54.3584 19.2922 53.1774 20.4554 51.7217 20.4554H50.8428C49.3871 20.4554 48.2061 19.2922 48.2061 17.8586C48.2061 16.4249 49.3871 15.2618 50.8428 15.2618ZM45.5693 26.2061C45.5693 26.6146 45.9072 26.9473 46.3219 26.9473H47.7666V25.6489C47.7666 25.1701 48.1594 24.7833 48.6455 24.7833H53.919C54.4051 24.7833 54.7979 25.1701 54.7979 25.6489V26.9473H56.2426C56.6573 26.9473 56.9951 26.6146 56.9951 26.2061C56.9951 24.5885 56.119 23.1711 54.8088 22.3921C53.8091 23.0819 52.5951 23.4849 51.2822 23.4849C49.9694 23.4849 48.7554 23.0819 47.7556 22.3921C46.4455 23.1711 45.5693 24.5885 45.5693 26.2061ZM50.1644 16.9254C50.1397 16.8361 50.0573 16.7766 49.9639 16.7766C49.8705 16.7766 49.7881 16.8361 49.7634 16.9254L49.5986 17.4988L49.0163 17.6611C48.9257 17.6855 48.8652 17.7666 48.8652 17.8586C48.8652 17.9506 48.9257 18.0317 49.0163 18.056L49.5986 18.2183L49.7634 18.7918C49.7881 18.8811 49.8705 18.9406 49.9639 18.9406C50.0573 18.9406 50.1397 18.8811 50.1644 18.7918L50.3292 18.2183L50.9114 18.056C51.0021 18.0317 51.0625 17.9506 51.0625 17.8586C51.0625 17.7666 51.0021 17.6855 50.9114 17.6611L50.3292 17.4988L50.1644 16.9254ZM49.3047 26.2981V26.9473H50.6231V26.2981C50.6231 25.9383 50.3292 25.6489 49.9639 25.6489C49.5986 25.6489 49.3047 25.9383 49.3047 26.2981ZM52.6006 25.6489C52.2353 25.6489 51.9414 25.9383 51.9414 26.2981V26.9473H53.2598V26.2981C53.2598 25.9383 52.9659 25.6489 52.6006 25.6489Z" fill="white"/>
<path d="M61.5089 28.0717C61.4791 27.9706 61.3869 27.8992 61.2798 27.8992C61.1727 27.8992 61.0804 27.9706 61.0507 28.0717L60.6103 29.6101L59.072 30.0504C58.9708 30.0802 58.8994 30.1724 58.8994 30.2795C58.8994 30.3867 58.9708 30.4789 59.072 30.5087L60.6103 30.949L61.0507 32.4873C61.0804 32.5885 61.1727 32.6599 61.2798 32.6599C61.3869 32.6599 61.4791 32.5885 61.5089 32.4873L61.9493 30.949L63.4876 30.5087C63.5888 30.4789 63.6602 30.3867 63.6602 30.2795C63.6602 30.1724 63.5888 30.0802 63.4876 30.0504L61.9493 29.6101L61.5089 28.0717Z" fill="white"/>
<path d="M44.2786 8.95999C44.2607 8.89929 44.2054 8.85645 44.1411 8.85645C44.0768 8.85645 44.0215 8.89929 44.0036 8.95999L43.7394 9.88298L42.8164 10.1472C42.7557 10.1651 42.7129 10.2204 42.7129 10.2847C42.7129 10.3489 42.7557 10.4043 42.8164 10.4221L43.7394 10.6864L44.0036 11.6093C44.0215 11.67 44.0768 11.7129 44.1411 11.7129C44.2054 11.7129 44.2607 11.67 44.2786 11.6093L44.5428 10.6864L45.4658 10.4221C45.5265 10.4043 45.5693 10.3489 45.5693 10.2847C45.5693 10.2204 45.5265 10.1651 45.4658 10.1472L44.5428 9.88298L44.2786 8.95999Z" fill="white"/>
<path d="M41.5138 11.8855C41.484 11.7843 41.3918 11.7129 41.2847 11.7129C41.1776 11.7129 41.0853 11.7843 41.0556 11.8855L40.6152 13.4238L39.0769 13.8642C38.9757 13.8939 38.9043 13.9861 38.9043 14.0933C38.9043 14.2004 38.9757 14.2926 39.0769 14.3224L40.6152 14.7627L41.0556 16.3011C41.0853 16.4022 41.1776 16.4736 41.2847 16.4736C41.3918 16.4736 41.484 16.4022 41.5138 16.3011L41.9542 14.7627L43.4925 14.3224C43.5936 14.2926 43.665 14.2004 43.665 14.0933C43.665 13.9861 43.5936 13.8939 43.4925 13.8642L41.9542 13.4238L41.5138 11.8855Z" fill="white"/>
</svg>
