<svg width="87" height="27" viewBox="0 0 87 27" fill="none" xmlns="http://www.w3.org/2000/svg">
<path d="M34.9856 19.3438V12.2256H33.494V9.90325H34.9856V9.03472C34.9856 8.00256 35.2562 7.19067 35.7975 6.59907C36.3387 6.00746 37.1695 5.71166 38.2898 5.71166C38.7052 5.71166 39.1394 5.78719 39.5926 5.93823C40.0457 6.07669 40.4359 6.24033 40.7632 6.42914L39.6681 8.50605C39.517 8.40535 39.366 8.33612 39.2149 8.29836C39.0639 8.24801 38.9254 8.22284 38.7996 8.22284C38.4975 8.22284 38.2772 8.32983 38.1387 8.54381C38.0003 8.74521 37.931 9.08507 37.931 9.56339V9.90325H40.0646V12.2256H37.931V19.3438H34.9856ZM41.6751 19.3438V9.90325H44.6205V11.6592C45.0107 11.0676 45.5079 10.6207 46.1121 10.3186C46.7163 10.0165 47.3331 9.86548 47.9625 9.86548V12.7354C47.3834 12.7354 46.8359 12.7983 46.3198 12.9242C45.8163 13.0501 45.4072 13.2452 45.0925 13.5095C44.7779 13.7613 44.6205 14.0885 44.6205 14.4913V19.3438H41.6751ZM52.521 19.5703C51.7658 19.5703 51.1301 19.4193 50.6141 19.1172C50.098 18.8025 49.7078 18.3305 49.4434 17.7011C49.1917 17.0717 49.0658 16.2661 49.0658 15.2843V9.90325H52.0112V14.7368C52.0112 15.2277 52.0679 15.6242 52.1812 15.9263C52.2945 16.2284 52.4581 16.4487 52.6721 16.5871C52.8861 16.7256 53.1378 16.8011 53.4273 16.8137C53.9938 16.8137 54.4217 16.6564 54.7112 16.3417C55.0007 16.0144 55.1455 15.5298 55.1455 14.8878V9.90325H58.0909V19.3438H55.3154L55.2021 18.1354C54.9 18.5885 54.5161 18.941 54.0504 19.1927C53.5973 19.4444 53.0875 19.5703 52.521 19.5703ZM64.4773 23.3843C63.7095 23.3843 63.036 23.3339 62.457 23.2332C61.8906 23.1325 61.406 23.0004 61.0032 22.8367C60.6004 22.6731 60.2668 22.4906 60.0025 22.2892L61.1542 19.9479C61.3556 20.0361 61.5948 20.143 61.8717 20.2689C62.1486 20.4074 62.4885 20.527 62.8913 20.6277C63.2941 20.7284 63.7787 20.7787 64.3451 20.7787C64.7857 20.7787 65.1759 20.6906 65.5157 20.5144C65.8682 20.3507 66.1388 20.0864 66.3276 19.7214C66.529 19.3689 66.6297 18.9221 66.6297 18.3808V17.5123C66.3276 17.978 65.9311 18.3431 65.4402 18.6074C64.9619 18.8591 64.4144 18.985 63.7976 18.985C62.9165 18.985 62.1549 18.8088 61.513 18.4563C60.8836 18.0913 60.3927 17.5752 60.0402 16.9081C59.7004 16.241 59.5305 15.448 59.5305 14.5291C59.5305 13.5221 59.7004 12.6599 60.0402 11.9424C60.3927 11.2249 60.8836 10.6711 61.513 10.2809C62.1549 9.87807 62.9165 9.67667 63.7976 9.67667C64.4144 9.67667 64.9619 9.82143 65.4402 10.1109C65.9311 10.3879 66.3276 10.7907 66.6297 11.3193V9.90325H69.5752V18.2675C69.5752 19.3249 69.3738 20.2375 68.971 21.0053C68.5682 21.7731 67.9892 22.3584 67.2339 22.7612C66.4787 23.1766 65.5598 23.3843 64.4773 23.3843ZM64.6661 16.5305C65.0437 16.5305 65.3647 16.4424 65.629 16.2661C65.9059 16.0773 66.1136 15.8256 66.2521 15.5109C66.4031 15.1962 66.4787 14.8375 66.4787 14.4347C66.4787 14.0067 66.4031 13.6354 66.2521 13.3207C66.1011 13.006 65.8871 12.7606 65.6101 12.5843C65.3458 12.4081 65.0248 12.32 64.6472 12.32C64.2822 12.32 63.9549 12.4081 63.6654 12.5843C63.3885 12.7606 63.1682 13.006 63.0046 13.3207C62.8535 13.6354 62.7717 14.0067 62.7591 14.4347C62.7717 14.8375 62.8535 15.1962 63.0046 15.5109C63.1682 15.8256 63.3948 16.0773 63.6843 16.2661C63.9738 16.4424 64.3011 16.5305 64.6661 16.5305ZM74.5295 19.5703C73.4218 19.5703 72.5596 19.3249 71.9428 18.834C71.326 18.3305 71.0176 17.613 71.0176 16.6815C71.0176 15.6871 71.3386 14.9445 71.9806 14.4536C72.6225 13.9627 73.5225 13.7172 74.6806 13.7172H76.984C76.9211 13.2263 76.7701 12.8424 76.5309 12.5655C76.3043 12.276 75.933 12.1312 75.4169 12.1312C75.0645 12.1312 74.7561 12.213 74.4917 12.3767C74.2274 12.5403 74.0008 12.7606 73.812 13.0375L71.2253 12.1878C71.4519 11.7221 71.7477 11.3004 72.1127 10.9228C72.4904 10.5452 72.9498 10.2431 73.491 10.0165C74.0323 9.78996 74.6617 9.67667 75.3792 9.67667C76.361 9.67667 77.1917 9.85919 77.8714 10.2242C78.5512 10.5893 79.0609 11.099 79.4008 11.7536C79.7407 12.4081 79.9106 13.1822 79.9106 14.0759L79.8728 19.3438H77.1162L77.0784 18.3808C76.8141 18.771 76.468 19.0668 76.04 19.2682C75.612 19.4696 75.1085 19.5703 74.5295 19.5703ZM75.1903 17.3424C75.5554 17.3424 75.8701 17.2668 76.1344 17.1158C76.4113 16.9647 76.6253 16.7633 76.7763 16.5116C76.94 16.2473 77.0218 15.964 77.0218 15.662V15.6242H75.7757C75.1589 15.6242 74.712 15.7123 74.4351 15.8885C74.1582 16.0522 74.0197 16.2913 74.0197 16.606C74.0197 16.8326 74.1204 17.0151 74.3218 17.1536C74.5358 17.2794 74.8253 17.3424 75.1903 17.3424ZM81.705 19.3438V6.12704H84.6505V19.3438H81.705Z" fill="#1A1925"/>
<rect width="26.4334" height="26.4334" rx="2.11467" fill="#1A1925"/>
<path d="M13.2166 14.9789C15.1127 14.9789 16.7343 13.8174 17.385 12.1753H17.4866C17.8247 12.1753 18.0966 11.9075 18.0966 11.5746V9.57203C18.0966 9.23911 17.8247 8.97127 17.4866 8.97127H17.385C16.7343 7.32919 15.1127 6.16772 13.2166 6.16772C11.3205 6.16772 9.69894 7.32919 9.04827 8.97127H8.9466C8.60856 8.97127 8.3366 9.23911 8.3366 9.57203V11.5746C8.3366 11.9075 8.60856 12.1753 8.9466 12.1753H9.04827C9.69894 13.8174 11.3205 14.9789 13.2166 14.9789ZM12.8099 8.57076H13.6233C14.9704 8.57076 16.0633 9.64712 16.0633 10.9738C16.0633 12.3005 14.9704 13.3768 13.6233 13.3768H12.8099C11.4629 13.3768 10.3699 12.3005 10.3699 10.9738C10.3699 9.64712 11.4629 8.57076 12.8099 8.57076ZM7.92993 18.6986C7.92993 19.0765 8.24256 19.3844 8.62635 19.3844H9.96327V18.1829C9.96327 17.7399 10.3267 17.3819 10.7766 17.3819H15.6566C16.1065 17.3819 16.47 17.7399 16.47 18.1829V19.3844H17.8069C18.1907 19.3844 18.5033 19.0765 18.5033 18.6986C18.5033 17.2017 17.6925 15.89 16.4801 15.1691C15.555 15.8074 14.4315 16.1804 13.2166 16.1804C12.0017 16.1804 10.8783 15.8074 9.9531 15.1691C8.74073 15.89 7.92993 17.2017 7.92993 18.6986ZM12.1822 10.1102C12.1593 10.0276 12.083 9.97253 11.9966 9.97253C11.9102 9.97253 11.8339 10.0276 11.8111 10.1102L11.6586 10.6409L11.1197 10.7911C11.0359 10.8136 10.9799 10.8887 10.9799 10.9738C10.9799 11.0589 11.0359 11.134 11.1197 11.1565L11.6586 11.3067L11.8111 11.8374C11.8339 11.92 11.9102 11.9751 11.9966 11.9751C12.083 11.9751 12.1593 11.92 12.1822 11.8374L12.3347 11.3067L12.8735 11.1565C12.9574 11.134 13.0133 11.0589 13.0133 10.9738C13.0133 10.8887 12.9574 10.8136 12.8735 10.7911L12.3347 10.6409L12.1822 10.1102ZM11.3866 18.7837V19.3844H12.6066V18.7837C12.6066 18.4507 12.3347 18.1829 11.9966 18.1829C11.6586 18.1829 11.3866 18.4507 11.3866 18.7837ZM14.4366 18.1829C14.0986 18.1829 13.8266 18.4507 13.8266 18.7837V19.3844H15.0466V18.7837C15.0466 18.4507 14.7747 18.1829 14.4366 18.1829Z" fill="white"/>
<path d="M22.6803 20.4251C22.6528 20.3315 22.5674 20.2654 22.4683 20.2654C22.3692 20.2654 22.2838 20.3315 22.2563 20.4251L21.8488 21.8486L20.4252 22.2561C20.3316 22.2837 20.2655 22.369 20.2655 22.4682C20.2655 22.5673 20.3316 22.6526 20.4252 22.6802L21.8488 23.0877L22.2563 24.5112C22.2838 24.6049 22.3692 24.6709 22.4683 24.6709C22.5674 24.6709 22.6528 24.6049 22.6803 24.5112L23.0878 23.0877L24.5114 22.6802C24.605 22.6526 24.6711 22.5673 24.6711 22.4682C24.6711 22.369 24.605 22.2837 24.5114 22.2561L23.0878 21.8486L22.6803 20.4251Z" fill="white"/>
<path d="M6.7355 2.73938C6.71898 2.6832 6.66777 2.64355 6.60829 2.64355C6.54882 2.64355 6.4976 2.6832 6.48108 2.73938L6.23657 3.59351L5.38244 3.83801C5.32627 3.85454 5.28662 3.90575 5.28662 3.96522C5.28662 4.0247 5.32627 4.07592 5.38244 4.09244L6.23657 4.33695L6.48108 5.19107C6.4976 5.24725 6.54882 5.2869 6.60829 5.2869C6.66777 5.2869 6.71898 5.24725 6.7355 5.19107L6.98001 4.33695L7.83414 4.09244C7.89031 4.07592 7.92996 4.0247 7.92996 3.96522C7.92996 3.90575 7.89031 3.85454 7.83414 3.83801L6.98001 3.59351L6.7355 2.73938Z" fill="white"/>
<path d="M4.17701 5.44632C4.14947 5.3527 4.06412 5.28662 3.96499 5.28662C3.86587 5.28662 3.78051 5.3527 3.75297 5.44632L3.34546 6.86987L1.92191 7.27739C1.82829 7.30492 1.76221 7.39028 1.76221 7.4894C1.76221 7.58853 1.82829 7.67389 1.92191 7.70142L3.34546 8.10894L3.75297 9.53249C3.78051 9.62611 3.86587 9.69219 3.96499 9.69219C4.06412 9.69219 4.14947 9.62611 4.17701 9.53249L4.58452 8.10894L6.00807 7.70142C6.10169 7.67389 6.16778 7.58853 6.16778 7.4894C6.16778 7.39028 6.10169 7.30492 6.00807 7.27739L4.58452 6.86987L4.17701 5.44632Z" fill="white"/>
</svg>
